<svg width="603" height="556" viewBox="0 0 603 556" fill="none" xmlns="http://www.w3.org/2000/svg">
<g opacity="0.7">
<path d="M23.168 65.848C23.168 86.712 75.264 69.816 75.264 105.4C75.264 122.936 60.928 132.92 41.216 132.92C21.376 132.92 7.296 123.704 3.968 104.76H22.016C24.192 113.976 30.848 119.096 41.344 119.096C52.096 119.096 57.6 114.616 57.6 107.576C57.6 85.432 5.632 102.072 5.632 67.384C5.632 53.56 17.024 42.04 37.632 42.04C55.168 42.04 70.016 50.488 72.832 70.072H54.528C52.48 60.344 46.464 55.864 37.12 55.864C28.416 55.864 23.168 59.832 23.168 65.848ZM88.978 109.624V75.064H80.146V62.392H88.978V46.648H105.362V62.392H119.826V75.064H105.362V108.216C105.362 115.384 107.41 119.224 116.498 119.224H119.57V131.256C117.778 132.152 114.066 132.92 109.586 132.92C95.634 132.92 88.978 124.984 88.978 109.624ZM145.299 84.92H128.787C130.963 69.688 142.099 60.472 159.379 60.472C178.451 60.472 188.179 71.736 188.179 87.608V114.232C188.179 122.68 188.947 127.416 190.227 131H173.203C172.307 128.696 171.923 125.368 171.795 121.656C166.163 129.592 157.715 132.92 149.523 132.92C136.083 132.92 126.483 126.264 126.483 113.08C126.483 103.736 131.731 96.696 142.227 93.24C151.315 90.168 160.147 89.4 171.667 89.272V87.608C171.667 78.776 167.443 74.04 158.355 74.04C150.547 74.04 146.323 78.392 145.299 84.92ZM142.995 112.184C142.995 117.432 147.091 120.76 153.747 120.76C163.859 120.76 171.667 112.568 171.667 102.328V99.384C148.371 99.768 142.995 105.272 142.995 112.184ZM203.802 131V62.392H220.186V72.376C224.666 64.184 231.578 60.472 239.002 60.472C241.818 60.472 244.378 61.24 245.658 62.392V76.6C243.482 75.96 241.05 75.704 238.106 75.704C225.69 75.704 220.186 83.128 220.186 94.52V131H203.802ZM270.686 131H254.302V38.84H270.686V70.072C275.038 63.928 281.182 60.472 288.734 60.472C306.526 60.472 317.534 74.168 317.534 96.568C317.534 119.864 306.27 132.92 288.734 132.92C281.182 132.92 274.91 129.72 270.686 123.704V131ZM285.79 74.04C275.934 74.04 270.686 81.976 270.686 96.568C270.686 111.16 276.062 119.352 285.79 119.352C295.518 119.352 300.766 111.288 300.766 96.568C300.766 82.104 295.39 74.04 285.79 74.04ZM372.051 102.2V62.392H388.435V131H372.051V121.784C367.571 129.336 360.531 132.92 352.083 132.92C338.515 132.92 329.427 124.728 329.427 108.216V62.392H345.811V104.888C345.811 114.232 349.651 119.352 357.715 119.352C366.547 119.352 372.051 111.416 372.051 102.2ZM462.944 86.712H446.56C445.024 77.752 439.648 74.04 432.736 74.04C422.624 74.04 417.248 82.104 417.248 96.824C417.248 111.288 422.88 119.352 433.248 119.352C440.288 119.352 445.28 115.512 446.944 107.704H463.456C460.384 124.856 448.352 132.92 432.864 132.92C412.64 132.92 400.352 119.096 400.352 96.824C400.352 73.528 413.024 60.472 432.736 60.472C448.352 60.472 460.64 69.176 462.944 86.712ZM474.802 131V38.84H491.186V91.064L516.018 62.392H535.218L507.57 92.856L537.138 131H517.042L491.186 97.848V131H474.802ZM555.623 80.824C555.623 96.568 598.887 83.256 598.887 110.776C598.887 123.96 586.727 132.92 569.575 132.92C552.679 132.92 540.519 125.112 538.087 108.6H554.471C555.623 116.024 561.511 120.248 570.087 120.248C578.151 120.248 582.375 116.792 582.375 111.8C582.375 96.44 540.007 109.624 540.007 81.848C540.007 70.712 548.711 60.472 566.631 60.472C582.375 60.472 594.279 67.896 596.327 84.92H579.943C578.663 76.6 573.799 73.272 565.991 73.272C559.463 73.272 555.623 76.472 555.623 80.824Z" fill="white"/>
<mask id="path-2-outside-1_21_49" maskUnits="userSpaceOnUse" x="1" y="165" width="600" height="99" fill="black">
<rect fill="white" x="1" y="165" width="600" height="99"/>
<path d="M23.168 194.848C23.168 215.712 75.264 198.816 75.264 234.4C75.264 251.936 60.928 261.92 41.216 261.92C21.376 261.92 7.296 252.704 3.968 233.76H22.016C24.192 242.976 30.848 248.096 41.344 248.096C52.096 248.096 57.6 243.616 57.6 236.576C57.6 214.432 5.632 231.072 5.632 196.384C5.632 182.56 17.024 171.04 37.632 171.04C55.168 171.04 70.016 179.488 72.832 199.072H54.528C52.48 189.344 46.464 184.864 37.12 184.864C28.416 184.864 23.168 188.832 23.168 194.848ZM88.978 238.624V204.064H80.146V191.392H88.978V175.648H105.362V191.392H119.826V204.064H105.362V237.216C105.362 244.384 107.41 248.224 116.498 248.224H119.57V260.256C117.778 261.152 114.066 261.92 109.586 261.92C95.634 261.92 88.978 253.984 88.978 238.624ZM145.299 213.92H128.787C130.963 198.688 142.099 189.472 159.379 189.472C178.451 189.472 188.179 200.736 188.179 216.608V243.232C188.179 251.68 188.947 256.416 190.227 260H173.203C172.307 257.696 171.923 254.368 171.795 250.656C166.163 258.592 157.715 261.92 149.523 261.92C136.083 261.92 126.483 255.264 126.483 242.08C126.483 232.736 131.731 225.696 142.227 222.24C151.315 219.168 160.147 218.4 171.667 218.272V216.608C171.667 207.776 167.443 203.04 158.355 203.04C150.547 203.04 146.323 207.392 145.299 213.92ZM142.995 241.184C142.995 246.432 147.091 249.76 153.747 249.76C163.859 249.76 171.667 241.568 171.667 231.328V228.384C148.371 228.768 142.995 234.272 142.995 241.184ZM203.802 260V191.392H220.186V201.376C224.666 193.184 231.578 189.472 239.002 189.472C241.818 189.472 244.378 190.24 245.658 191.392V205.6C243.482 204.96 241.05 204.704 238.106 204.704C225.69 204.704 220.186 212.128 220.186 223.52V260H203.802ZM270.686 260H254.302V167.84H270.686V199.072C275.038 192.928 281.182 189.472 288.734 189.472C306.526 189.472 317.534 203.168 317.534 225.568C317.534 248.864 306.27 261.92 288.734 261.92C281.182 261.92 274.91 258.72 270.686 252.704V260ZM285.79 203.04C275.934 203.04 270.686 210.976 270.686 225.568C270.686 240.16 276.062 248.352 285.79 248.352C295.518 248.352 300.766 240.288 300.766 225.568C300.766 211.104 295.39 203.04 285.79 203.04ZM372.051 231.2V191.392H388.435V260H372.051V250.784C367.571 258.336 360.531 261.92 352.083 261.92C338.515 261.92 329.427 253.728 329.427 237.216V191.392H345.811V233.888C345.811 243.232 349.651 248.352 357.715 248.352C366.547 248.352 372.051 240.416 372.051 231.2ZM462.944 215.712H446.56C445.024 206.752 439.648 203.04 432.736 203.04C422.624 203.04 417.248 211.104 417.248 225.824C417.248 240.288 422.88 248.352 433.248 248.352C440.288 248.352 445.28 244.512 446.944 236.704H463.456C460.384 253.856 448.352 261.92 432.864 261.92C412.64 261.92 400.352 248.096 400.352 225.824C400.352 202.528 413.024 189.472 432.736 189.472C448.352 189.472 460.64 198.176 462.944 215.712ZM474.802 260V167.84H491.186V220.064L516.018 191.392H535.218L507.57 221.856L537.138 260H517.042L491.186 226.848V260H474.802ZM555.623 209.824C555.623 225.568 598.887 212.256 598.887 239.776C598.887 252.96 586.727 261.92 569.575 261.92C552.679 261.92 540.519 254.112 538.087 237.6H554.471C555.623 245.024 561.511 249.248 570.087 249.248C578.151 249.248 582.375 245.792 582.375 240.8C582.375 225.44 540.007 238.624 540.007 210.848C540.007 199.712 548.711 189.472 566.631 189.472C582.375 189.472 594.279 196.896 596.327 213.92H579.943C578.663 205.6 573.799 202.272 565.991 202.272C559.463 202.272 555.623 205.472 555.623 209.824Z"/>
</mask>
<path d="M3.968 233.76V231.76H1.58602L1.99817 234.106L3.968 233.76ZM22.016 233.76L23.9625 233.3L23.5988 231.76H22.016V233.76ZM72.832 199.072V201.072H75.1402L74.8116 198.787L72.832 199.072ZM54.528 199.072L52.5709 199.484L52.9052 201.072H54.528V199.072ZM21.168 194.848C21.168 197.921 22.1454 200.418 23.911 202.406C25.6298 204.342 27.9905 205.678 30.5809 206.689C35.6614 208.672 42.5009 209.691 48.791 211.058C55.282 212.47 61.4046 214.276 65.9068 217.729C70.2673 221.073 73.264 226.087 73.264 234.4H77.264C77.264 224.921 73.7487 218.703 68.3412 214.555C63.0754 210.516 56.174 208.57 49.641 207.15C42.9071 205.685 36.7226 204.792 32.0351 202.963C29.7415 202.068 28.0322 201.023 26.902 199.75C25.8186 198.53 25.168 196.991 25.168 194.848H21.168ZM73.264 234.4C73.264 242.561 69.9575 248.853 64.4067 253.155C58.8006 257.501 50.7596 259.92 41.216 259.92V263.92C51.3844 263.92 60.3674 261.347 66.8573 256.317C73.4025 251.243 77.264 243.775 77.264 234.4H73.264ZM41.216 259.92C31.591 259.92 23.5605 257.684 17.5773 253.327C11.628 248.995 7.52301 242.437 5.93783 233.414L1.99817 234.106C3.741 244.027 8.34001 251.549 15.2227 256.561C22.0715 261.548 31.001 263.92 41.216 263.92V259.92ZM3.968 235.76H22.016V231.76H3.968V235.76ZM20.0695 234.22C21.2464 239.204 23.6771 243.226 27.3613 245.985C31.0336 248.735 35.7732 250.096 41.344 250.096V246.096C36.4188 246.096 32.5824 244.897 29.7587 242.783C26.9469 240.678 24.9616 237.532 23.9625 233.3L20.0695 234.22ZM41.344 250.096C46.958 250.096 51.4996 248.932 54.6888 246.587C57.9609 244.181 59.6 240.681 59.6 236.576H55.6C55.6 239.511 54.4871 241.771 52.3192 243.365C50.0684 245.02 46.482 246.096 41.344 246.096V250.096ZM59.6 236.576C59.6 233.378 58.6475 230.759 56.9132 228.645C55.2144 226.575 52.8679 225.112 50.2704 223.995C45.174 221.802 38.356 220.661 32.058 219.233C25.5673 217.763 19.4523 215.968 14.9541 212.586C10.6045 209.314 7.632 204.453 7.632 196.384H3.632C3.632 205.659 7.15554 211.726 12.5499 215.782C17.7957 219.728 24.6727 221.661 31.174 223.135C37.868 224.651 44.042 225.67 48.6896 227.669C50.9641 228.648 52.6776 229.789 53.8208 231.183C54.9285 232.533 55.6 234.238 55.6 236.576H59.6ZM7.632 196.384C7.632 190.052 10.2276 184.276 15.1989 180.052C20.1867 175.815 27.6943 173.04 37.632 173.04V169.04C26.9617 169.04 18.4693 172.025 12.6091 177.004C6.73239 181.996 3.632 188.892 3.632 196.384H7.632ZM37.632 173.04C46.0976 173.04 53.7464 175.081 59.5739 179.328C65.3593 183.545 69.5148 190.054 70.8524 199.357L74.8116 198.787C73.3333 188.506 68.6567 180.999 61.9301 176.096C55.2456 171.223 46.7024 169.04 37.632 169.04V173.04ZM72.832 197.072H54.528V201.072H72.832V197.072ZM56.4851 198.66C55.3922 193.469 53.1886 189.454 49.8073 186.757C46.4307 184.063 42.1076 182.864 37.12 182.864V186.864C41.4764 186.864 44.8333 187.905 47.3127 189.883C49.7874 191.858 51.6158 194.947 52.5709 199.484L56.4851 198.66ZM37.12 182.864C32.4934 182.864 28.5488 183.915 25.7043 185.982C22.7982 188.094 21.168 191.185 21.168 194.848H25.168C25.168 192.495 26.1618 190.594 28.0557 189.218C30.0112 187.797 33.0426 186.864 37.12 186.864V182.864ZM88.978 204.064H90.978V202.064H88.978V204.064ZM80.146 204.064H78.146V206.064H80.146V204.064ZM80.146 191.392V189.392H78.146V191.392H80.146ZM88.978 191.392V193.392H90.978V191.392H88.978ZM88.978 175.648V173.648H86.978V175.648H88.978ZM105.362 175.648H107.362V173.648H105.362V175.648ZM105.362 191.392H103.362V193.392H105.362V191.392ZM119.826 191.392H121.826V189.392H119.826V191.392ZM119.826 204.064V206.064H121.826V204.064H119.826ZM105.362 204.064V202.064H103.362V204.064H105.362ZM119.57 248.224H121.57V246.224H119.57V248.224ZM119.57 260.256L120.464 262.045L121.57 261.492V260.256H119.57ZM90.978 238.624V204.064H86.978V238.624H90.978ZM88.978 202.064H80.146V206.064H88.978V202.064ZM82.146 204.064V191.392H78.146V204.064H82.146ZM80.146 193.392H88.978V189.392H80.146V193.392ZM90.978 191.392V175.648H86.978V191.392H90.978ZM88.978 177.648H105.362V173.648H88.978V177.648ZM103.362 175.648V191.392H107.362V175.648H103.362ZM105.362 193.392H119.826V189.392H105.362V193.392ZM117.826 191.392V204.064H121.826V191.392H117.826ZM119.826 202.064H105.362V206.064H119.826V202.064ZM103.362 204.064V237.216H107.362V204.064H103.362ZM103.362 237.216C103.362 240.881 103.858 244.294 106.026 246.736C108.243 249.233 111.749 250.224 116.498 250.224V246.224C112.159 246.224 110.097 245.295 109.018 244.08C107.89 242.81 107.362 240.719 107.362 237.216H103.362ZM116.498 250.224H119.57V246.224H116.498V250.224ZM117.57 248.224V260.256H121.57V248.224H117.57ZM118.676 258.467C117.282 259.164 113.927 259.92 109.586 259.92V263.92C114.205 263.92 118.274 263.14 120.464 262.045L118.676 258.467ZM109.586 259.92C102.99 259.92 98.4721 258.056 95.5567 254.717C92.5955 251.325 90.978 246.061 90.978 238.624H86.978C86.978 246.547 88.6885 252.931 92.5433 257.347C96.4439 261.816 102.23 263.92 109.586 263.92V259.92ZM145.299 213.92V215.92H147.01L147.275 214.23L145.299 213.92ZM128.787 213.92L126.807 213.637L126.481 215.92H128.787V213.92ZM190.227 260V262H193.065L192.11 259.327L190.227 260ZM173.203 260L171.339 260.725L171.835 262H173.203V260ZM171.795 250.656L173.794 250.587L173.59 244.671L170.164 249.499L171.795 250.656ZM142.227 222.24L142.853 224.14L142.86 224.137L142.867 224.135L142.227 222.24ZM171.667 218.272L171.689 220.272L173.667 220.25V218.272H171.667ZM171.667 228.384H173.667V226.351L171.634 226.384L171.667 228.384ZM145.299 211.92H128.787V215.92H145.299V211.92ZM130.767 214.203C131.793 207.022 134.902 201.391 139.675 197.541C144.462 193.679 151.092 191.472 159.379 191.472V187.472C150.386 187.472 142.808 189.873 137.163 194.427C131.504 198.993 127.957 205.586 126.807 213.637L130.767 214.203ZM159.379 191.472C168.519 191.472 175.163 194.163 179.519 198.505C183.879 202.85 186.179 209.08 186.179 216.608H190.179C190.179 208.264 187.615 200.926 182.343 195.671C177.067 190.413 169.311 187.472 159.379 187.472V191.472ZM186.179 216.608V243.232H190.179V216.608H186.179ZM186.179 243.232C186.179 251.784 186.953 256.78 188.344 260.673L192.11 259.327C190.941 256.052 190.179 251.576 190.179 243.232H186.179ZM190.227 258H173.203V262H190.227V258ZM175.067 259.275C174.302 257.309 173.921 254.273 173.794 250.587L169.796 250.725C169.925 254.463 170.312 258.083 171.339 260.725L175.067 259.275ZM170.164 249.499C164.963 256.827 157.17 259.92 149.523 259.92V263.92C158.26 263.92 167.363 260.357 173.426 251.813L170.164 249.499ZM149.523 259.92C143.105 259.92 137.842 258.328 134.223 255.391C130.663 252.501 128.483 248.14 128.483 242.08H124.483C124.483 249.204 127.103 254.763 131.702 258.497C136.244 262.184 142.501 263.92 149.523 263.92V259.92ZM128.483 242.08C128.483 237.8 129.677 234.151 131.995 231.183C134.324 228.202 137.891 225.773 142.853 224.14L141.602 220.34C136.067 222.163 131.762 224.982 128.843 228.721C125.913 232.473 124.483 237.016 124.483 242.08H128.483ZM142.867 224.135C151.657 221.164 160.239 220.399 171.689 220.272L171.645 216.272C160.055 216.401 150.973 217.172 141.587 220.345L142.867 224.135ZM173.667 218.272V216.608H169.667V218.272H173.667ZM173.667 216.608C173.667 211.905 172.544 207.926 169.863 205.128C167.167 202.314 163.229 201.04 158.355 201.04V205.04C162.569 205.04 165.287 206.134 166.975 207.896C168.678 209.674 169.667 212.479 169.667 216.608H173.667ZM158.355 201.04C154.07 201.04 150.558 202.242 147.96 204.532C145.372 206.813 143.889 210 143.323 213.61L147.275 214.23C147.733 211.312 148.874 209.059 150.606 207.532C152.328 206.014 154.832 205.04 158.355 205.04V201.04ZM140.995 241.184C140.995 244.378 142.266 247.11 144.624 249C146.933 250.852 150.108 251.76 153.747 251.76V247.76C150.73 247.76 148.529 247.004 147.126 245.88C145.772 244.794 144.995 243.238 144.995 241.184H140.995ZM153.747 251.76C165.028 251.76 173.667 242.607 173.667 231.328H169.667C169.667 240.529 162.69 247.76 153.747 247.76V251.76ZM173.667 231.328V228.384H169.667V231.328H173.667ZM171.634 226.384C159.913 226.577 152.342 228.051 147.648 230.574C145.258 231.859 143.557 233.446 142.47 235.317C141.384 237.185 140.995 239.192 140.995 241.184H144.995C144.995 239.72 145.278 238.447 145.928 237.327C146.577 236.21 147.676 235.101 149.542 234.098C153.36 232.045 160.125 230.575 171.7 230.384L171.634 226.384ZM203.802 260H201.802V262H203.802V260ZM203.802 191.392V189.392H201.802V191.392H203.802ZM220.186 191.392H222.186V189.392H220.186V191.392ZM220.186 201.376H218.186L221.941 202.336L220.186 201.376ZM245.658 191.392H247.658V190.501L246.996 189.905L245.658 191.392ZM245.658 205.6L245.094 207.519L247.658 208.273V205.6H245.658ZM220.186 260V262H222.186V260H220.186ZM205.802 260V191.392H201.802V260H205.802ZM203.802 193.392H220.186V189.392H203.802V193.392ZM218.186 191.392V201.376H222.186V191.392H218.186ZM221.941 202.336C226.085 194.757 232.341 191.472 239.002 191.472V187.472C230.815 187.472 223.247 191.611 218.431 200.416L221.941 202.336ZM239.002 191.472C241.585 191.472 243.564 192.198 244.32 192.879L246.996 189.905C245.192 188.282 242.051 187.472 239.002 187.472V191.472ZM243.658 191.392V205.6H247.658V191.392H243.658ZM246.222 203.681C243.797 202.968 241.158 202.704 238.106 202.704V206.704C240.942 206.704 243.167 206.952 245.094 207.519L246.222 203.681ZM238.106 202.704C231.49 202.704 226.401 204.696 222.998 208.508C219.63 212.281 218.186 217.533 218.186 223.52H222.186C222.186 218.115 223.494 213.959 225.982 211.172C228.435 208.424 232.306 206.704 238.106 206.704V202.704ZM218.186 223.52V260H222.186V223.52H218.186ZM220.186 258H203.802V262H220.186V258ZM270.686 260V262H272.686V260H270.686ZM254.302 260H252.302V262H254.302V260ZM254.302 167.84V165.84H252.302V167.84H254.302ZM270.686 167.84H272.686V165.84H270.686V167.84ZM270.686 199.072H268.686V205.356L272.318 200.228L270.686 199.072ZM270.686 252.704L272.323 251.555L268.686 246.375V252.704H270.686ZM270.686 258H254.302V262H270.686V258ZM256.302 260V167.84H252.302V260H256.302ZM254.302 169.84H270.686V165.84H254.302V169.84ZM268.686 167.84V199.072H272.686V167.84H268.686ZM272.318 200.228C276.326 194.569 281.883 191.472 288.734 191.472V187.472C280.481 187.472 273.75 191.287 269.054 197.916L272.318 200.228ZM288.734 191.472C297.068 191.472 303.675 194.654 308.244 200.369C312.855 206.136 315.534 214.671 315.534 225.568H319.534C319.534 214.065 316.709 204.552 311.368 197.871C305.985 191.138 298.192 187.472 288.734 187.472V191.472ZM315.534 225.568C315.534 236.919 312.788 245.509 308.157 251.22C303.567 256.881 296.963 259.92 288.734 259.92V263.92C298.041 263.92 305.837 260.431 311.263 253.74C316.648 247.099 319.534 237.513 319.534 225.568H315.534ZM288.734 259.92C281.812 259.92 276.16 257.02 272.323 251.555L269.049 253.853C273.66 260.42 280.552 263.92 288.734 263.92V259.92ZM268.686 252.704V260H272.686V252.704H268.686ZM285.79 201.04C280.235 201.04 275.816 203.324 272.879 207.721C270.023 211.997 268.686 218.085 268.686 225.568H272.686C272.686 218.459 273.973 213.283 276.205 209.943C278.356 206.724 281.489 205.04 285.79 205.04V201.04ZM268.686 225.568C268.686 233.061 270.058 239.204 272.922 243.535C275.859 247.978 280.268 250.352 285.79 250.352V246.352C281.584 246.352 278.441 244.63 276.258 241.329C274.002 237.916 272.686 232.667 272.686 225.568H268.686ZM285.79 250.352C291.304 250.352 295.688 248.016 298.599 243.577C301.43 239.258 302.766 233.113 302.766 225.568H298.766C298.766 232.743 297.478 237.99 295.253 241.383C293.108 244.656 290.004 246.352 285.79 246.352V250.352ZM302.766 225.568C302.766 218.136 301.393 212.056 298.543 207.772C295.62 203.379 291.245 201.04 285.79 201.04V205.04C289.935 205.04 293.048 206.733 295.213 209.988C297.451 213.352 298.766 218.536 298.766 225.568H302.766ZM372.051 191.392V189.392H370.051V191.392H372.051ZM388.435 191.392H390.435V189.392H388.435V191.392ZM388.435 260V262H390.435V260H388.435ZM372.051 260H370.051V262H372.051V260ZM372.051 250.784H374.051V243.493L370.331 249.764L372.051 250.784ZM329.427 191.392V189.392H327.427V191.392H329.427ZM345.811 191.392H347.811V189.392H345.811V191.392ZM374.051 231.2V191.392H370.051V231.2H374.051ZM372.051 193.392H388.435V189.392H372.051V193.392ZM386.435 191.392V260H390.435V191.392H386.435ZM388.435 258H372.051V262H388.435V258ZM374.051 260V250.784H370.051V260H374.051ZM370.331 249.764C366.24 256.66 359.883 259.92 352.083 259.92V263.92C361.179 263.92 368.902 260.012 373.771 251.804L370.331 249.764ZM352.083 259.92C345.702 259.92 340.61 258.003 337.106 254.371C333.595 250.733 331.427 245.114 331.427 237.216H327.427C327.427 245.83 329.803 252.563 334.228 257.149C338.66 261.742 344.896 263.92 352.083 263.92V259.92ZM331.427 237.216V191.392H327.427V237.216H331.427ZM329.427 193.392H345.811V189.392H329.427V193.392ZM343.811 191.392V233.888H347.811V191.392H343.811ZM343.811 233.888C343.811 238.785 344.809 242.928 347.18 245.877C349.616 248.907 353.233 250.352 357.715 250.352V246.352C354.133 246.352 351.798 245.237 350.298 243.371C348.733 241.424 347.811 238.335 347.811 233.888H343.811ZM357.715 250.352C368.064 250.352 374.051 241.058 374.051 231.2H370.051C370.051 239.774 365.03 246.352 357.715 246.352V250.352ZM462.944 215.712V217.712H465.224L464.927 215.451L462.944 215.712ZM446.56 215.712L444.589 216.05L444.874 217.712H446.56V215.712ZM446.944 236.704V234.704H445.325L444.988 236.287L446.944 236.704ZM463.456 236.704L465.425 237.057L465.846 234.704H463.456V236.704ZM462.944 213.712H446.56V217.712H462.944V213.712ZM448.531 215.374C447.705 210.556 445.803 206.918 442.962 204.495C440.121 202.07 436.552 201.04 432.736 201.04V205.04C435.832 205.04 438.407 205.866 440.366 207.537C442.325 209.21 443.879 211.908 444.589 216.05L448.531 215.374ZM432.736 201.04C427.062 201.04 422.548 203.349 419.543 207.792C416.618 212.117 415.248 218.273 415.248 225.824H419.248C419.248 218.655 420.566 213.419 422.857 210.032C425.068 206.763 428.298 205.04 432.736 205.04V201.04ZM415.248 225.824C415.248 233.268 416.69 239.371 419.727 243.667C422.837 248.065 427.471 250.352 433.248 250.352V246.352C428.657 246.352 425.291 244.607 422.993 241.357C420.622 238.005 419.248 232.844 419.248 225.824H415.248ZM433.248 250.352C437.139 250.352 440.627 249.285 443.388 246.996C446.145 244.711 447.997 241.36 448.9 237.121L444.988 236.287C444.227 239.856 442.751 242.329 440.836 243.916C438.925 245.499 436.397 246.352 433.248 246.352V250.352ZM446.944 238.704H463.456V234.704H446.944V238.704ZM461.487 236.351C460.025 244.516 456.47 250.354 451.585 254.168C446.683 257.995 440.266 259.92 432.864 259.92V263.92C440.95 263.92 448.293 261.813 454.047 257.32C459.818 252.814 463.815 246.044 465.425 237.057L461.487 236.351ZM432.864 259.92C423.231 259.92 415.678 256.644 410.512 250.888C405.324 245.106 402.352 236.605 402.352 225.824H398.352C398.352 237.315 401.524 246.862 407.536 253.56C413.57 260.284 422.273 263.92 432.864 263.92V259.92ZM402.352 225.824C402.352 214.527 405.422 205.971 410.63 200.26C415.818 194.57 423.338 191.472 432.736 191.472V187.472C422.422 187.472 413.75 190.902 407.674 197.564C401.618 204.205 398.352 213.825 398.352 225.824H402.352ZM432.736 191.472C440.177 191.472 446.675 193.543 451.562 197.561C456.431 201.564 459.866 207.638 460.961 215.973L464.927 215.451C463.718 206.25 459.857 199.204 454.102 194.471C448.365 189.753 440.911 187.472 432.736 187.472V191.472ZM474.802 260H472.802V262H474.802V260ZM474.802 167.84V165.84H472.802V167.84H474.802ZM491.186 167.84H493.186V165.84H491.186V167.84ZM491.186 220.064H489.186V225.428L492.698 221.373L491.186 220.064ZM516.018 191.392V189.392H515.104L514.506 190.083L516.018 191.392ZM535.218 191.392L536.699 192.736L539.734 189.392H535.218V191.392ZM507.57 221.856L506.089 220.512L504.961 221.755L505.989 223.081L507.57 221.856ZM537.138 260V262H541.219L538.719 258.775L537.138 260ZM517.042 260L515.465 261.23L516.065 262H517.042V260ZM491.186 226.848L492.763 225.618L489.186 221.032V226.848H491.186ZM491.186 260V262H493.186V260H491.186ZM476.802 260V167.84H472.802V260H476.802ZM474.802 169.84H491.186V165.84H474.802V169.84ZM489.186 167.84V220.064H493.186V167.84H489.186ZM492.698 221.373L517.53 192.701L514.506 190.083L489.674 218.755L492.698 221.373ZM516.018 193.392H535.218V189.392H516.018V193.392ZM533.737 190.048L506.089 220.512L509.051 223.2L536.699 192.736L533.737 190.048ZM505.989 223.081L535.557 261.225L538.719 258.775L509.151 220.631L505.989 223.081ZM537.138 258H517.042V262H537.138V258ZM518.619 258.77L492.763 225.618L489.609 228.078L515.465 261.23L518.619 258.77ZM489.186 226.848V260H493.186V226.848H489.186ZM491.186 258H474.802V262H491.186V258ZM538.087 237.6V235.6H535.771L536.108 237.891L538.087 237.6ZM554.471 237.6L556.447 237.293L556.185 235.6H554.471V237.6ZM596.327 213.92V215.92H598.582L598.313 213.681L596.327 213.92ZM579.943 213.92L577.966 214.224L578.227 215.92H579.943V213.92ZM553.623 209.824C553.623 212.315 554.504 214.335 556.06 215.909C557.553 217.419 559.573 218.424 561.732 219.167C565.966 220.624 571.685 221.35 576.877 222.348C582.269 223.385 587.297 224.734 590.972 227.333C594.492 229.821 596.887 233.537 596.887 239.776H600.887C600.887 232.255 597.874 227.315 593.282 224.067C588.845 220.93 583.057 219.463 577.633 218.42C572.009 217.338 566.912 216.72 563.034 215.385C561.137 214.732 559.777 213.979 558.904 213.096C558.094 212.277 557.623 211.269 557.623 209.824H553.623ZM596.887 239.776C596.887 245.686 594.187 250.649 589.463 254.192C584.701 257.764 577.823 259.92 569.575 259.92V263.92C578.479 263.92 586.258 261.596 591.863 257.392C597.507 253.159 600.887 247.05 600.887 239.776H596.887ZM569.575 259.92C561.417 259.92 554.609 258.034 549.593 254.341C544.616 250.678 541.213 245.101 540.066 237.309L536.108 237.891C537.393 246.611 541.286 253.194 547.221 257.563C553.117 261.902 560.837 263.92 569.575 263.92V259.92ZM538.087 239.6H554.471V235.6H538.087V239.6ZM552.495 237.907C553.146 242.104 555.167 245.499 558.307 247.817C561.419 250.114 565.482 251.248 570.087 251.248V247.248C566.116 247.248 562.947 246.27 560.683 244.599C558.447 242.949 556.948 240.52 556.447 237.293L552.495 237.907ZM570.087 251.248C574.37 251.248 577.905 250.335 580.425 248.518C583.016 246.65 584.375 243.931 584.375 240.8H580.375C580.375 242.661 579.622 244.166 578.085 245.274C576.477 246.433 573.868 247.248 570.087 247.248V251.248ZM584.375 240.8C584.375 238.354 583.506 236.372 581.972 234.831C580.502 233.355 578.517 232.377 576.402 231.654C572.262 230.238 566.646 229.521 561.579 228.518C556.308 227.475 551.397 226.101 547.809 223.473C544.369 220.952 542.007 217.177 542.007 210.848H538.007C538.007 218.407 540.941 223.4 545.445 226.699C549.801 229.891 555.482 231.389 560.803 232.442C566.328 233.535 571.304 234.138 575.108 235.438C576.965 236.073 578.29 236.802 579.137 237.653C579.92 238.44 580.375 239.406 580.375 240.8H584.375ZM542.007 210.848C542.007 205.816 543.964 201.026 547.933 197.474C551.906 193.918 558.051 191.472 566.631 191.472V187.472C557.291 187.472 550.123 190.146 545.265 194.494C540.402 198.846 538.007 204.744 538.007 210.848H542.007ZM566.631 191.472C574.208 191.472 580.648 193.26 585.399 196.9C590.109 200.508 593.372 206.099 594.341 214.159L598.313 213.681C597.234 204.717 593.521 198.084 587.831 193.724C582.182 189.396 574.797 187.472 566.631 187.472V191.472ZM596.327 211.92H579.943V215.92H596.327V211.92ZM581.92 213.616C581.228 209.118 579.516 205.684 576.661 203.411C573.829 201.158 570.156 200.272 565.991 200.272V204.272C569.634 204.272 572.297 205.05 574.169 206.541C576.018 208.012 577.378 210.402 577.966 214.224L581.92 213.616ZM565.991 200.272C562.422 200.272 559.367 201.145 557.152 202.821C554.894 204.53 553.623 207 553.623 209.824H557.623C557.623 208.296 558.272 206.99 559.566 206.011C560.903 204.999 563.032 204.272 565.991 204.272V200.272Z" fill="white" mask="url(#path-2-outside-1_21_49)"/>
<mask id="path-4-outside-2_21_49" maskUnits="userSpaceOnUse" x="2" y="295" width="598" height="97" fill="black">
<rect fill="white" x="2" y="295" width="598" height="97"/>
<path d="M23.168 323.848C23.168 344.712 75.264 327.816 75.264 363.4C75.264 380.936 60.928 390.92 41.216 390.92C21.376 390.92 7.296 381.704 3.968 362.76H22.016C24.192 371.976 30.848 377.096 41.344 377.096C52.096 377.096 57.6 372.616 57.6 365.576C57.6 343.432 5.632 360.072 5.632 325.384C5.632 311.56 17.024 300.04 37.632 300.04C55.168 300.04 70.016 308.488 72.832 328.072H54.528C52.48 318.344 46.464 313.864 37.12 313.864C28.416 313.864 23.168 317.832 23.168 323.848ZM88.978 367.624V333.064H80.146V320.392H88.978V304.648H105.362V320.392H119.826V333.064H105.362V366.216C105.362 373.384 107.41 377.224 116.498 377.224H119.57V389.256C117.778 390.152 114.066 390.92 109.586 390.92C95.634 390.92 88.978 382.984 88.978 367.624ZM145.299 342.92H128.787C130.963 327.688 142.099 318.472 159.379 318.472C178.451 318.472 188.179 329.736 188.179 345.608V372.232C188.179 380.68 188.947 385.416 190.227 389H173.203C172.307 386.696 171.923 383.368 171.795 379.656C166.163 387.592 157.715 390.92 149.523 390.92C136.083 390.92 126.483 384.264 126.483 371.08C126.483 361.736 131.731 354.696 142.227 351.24C151.315 348.168 160.147 347.4 171.667 347.272V345.608C171.667 336.776 167.443 332.04 158.355 332.04C150.547 332.04 146.323 336.392 145.299 342.92ZM142.995 370.184C142.995 375.432 147.091 378.76 153.747 378.76C163.859 378.76 171.667 370.568 171.667 360.328V357.384C148.371 357.768 142.995 363.272 142.995 370.184ZM203.802 389V320.392H220.186V330.376C224.666 322.184 231.578 318.472 239.002 318.472C241.818 318.472 244.378 319.24 245.658 320.392V334.6C243.482 333.96 241.05 333.704 238.106 333.704C225.69 333.704 220.186 341.128 220.186 352.52V389H203.802ZM270.686 389H254.302V296.84H270.686V328.072C275.038 321.928 281.182 318.472 288.734 318.472C306.526 318.472 317.534 332.168 317.534 354.568C317.534 377.864 306.27 390.92 288.734 390.92C281.182 390.92 274.91 387.72 270.686 381.704V389ZM285.79 332.04C275.934 332.04 270.686 339.976 270.686 354.568C270.686 369.16 276.062 377.352 285.79 377.352C295.518 377.352 300.766 369.288 300.766 354.568C300.766 340.104 295.39 332.04 285.79 332.04ZM372.051 360.2V320.392H388.435V389H372.051V379.784C367.571 387.336 360.531 390.92 352.083 390.92C338.515 390.92 329.427 382.728 329.427 366.216V320.392H345.811V362.888C345.811 372.232 349.651 377.352 357.715 377.352C366.547 377.352 372.051 369.416 372.051 360.2ZM462.944 344.712H446.56C445.024 335.752 439.648 332.04 432.736 332.04C422.624 332.04 417.248 340.104 417.248 354.824C417.248 369.288 422.88 377.352 433.248 377.352C440.288 377.352 445.28 373.512 446.944 365.704H463.456C460.384 382.856 448.352 390.92 432.864 390.92C412.64 390.92 400.352 377.096 400.352 354.824C400.352 331.528 413.024 318.472 432.736 318.472C448.352 318.472 460.64 327.176 462.944 344.712ZM474.802 389V296.84H491.186V349.064L516.018 320.392H535.218L507.57 350.856L537.138 389H517.042L491.186 355.848V389H474.802ZM555.623 338.824C555.623 354.568 598.887 341.256 598.887 368.776C598.887 381.96 586.727 390.92 569.575 390.92C552.679 390.92 540.519 383.112 538.087 366.6H554.471C555.623 374.024 561.511 378.248 570.087 378.248C578.151 378.248 582.375 374.792 582.375 369.8C582.375 354.44 540.007 367.624 540.007 339.848C540.007 328.712 548.711 318.472 566.631 318.472C582.375 318.472 594.279 325.896 596.327 342.92H579.943C578.663 334.6 573.799 331.272 565.991 331.272C559.463 331.272 555.623 334.472 555.623 338.824Z"/>
</mask>
<path d="M3.968 362.76V361.76H2.77701L2.98308 362.933L3.968 362.76ZM22.016 362.76L22.9892 362.53L22.8074 361.76H22.016V362.76ZM72.832 328.072V329.072H73.9861L73.8218 327.93L72.832 328.072ZM54.528 328.072L53.5495 328.278L53.7166 329.072H54.528V328.072ZM22.168 323.848C22.168 326.688 23.0637 328.946 24.6587 330.742C26.2304 332.512 28.4282 333.776 30.9445 334.758C35.9267 336.702 42.6025 337.689 49.0035 339.081C55.505 340.495 61.8223 342.336 66.5154 345.935C71.1376 349.481 74.264 354.796 74.264 363.4H76.264C76.264 354.212 72.8784 348.295 67.7326 344.349C62.6577 340.456 55.951 338.545 49.4285 337.127C42.8055 335.687 36.4573 334.762 31.6716 332.894C29.3038 331.97 27.4316 330.853 26.1543 329.414C24.9003 328.002 24.168 326.224 24.168 323.848H22.168ZM74.264 363.4C74.264 371.864 70.8187 378.45 65.0194 382.946C59.1923 387.462 50.9158 389.92 41.216 389.92V391.92C51.2282 391.92 59.9757 389.386 66.2446 384.526C72.5413 379.646 76.264 372.472 76.264 363.4H74.264ZM41.216 389.92C31.4435 389.92 23.1883 387.65 16.9887 383.136C10.806 378.634 6.5775 371.835 4.95292 362.587L2.98308 362.933C4.6865 372.629 9.16201 379.91 15.8113 384.752C22.4438 389.582 31.1485 391.92 41.216 391.92V389.92ZM3.968 363.76H22.016V361.76H3.968V363.76ZM21.0428 362.99C22.1752 367.786 24.4945 371.589 27.9606 374.184C31.4208 376.775 35.9346 378.096 41.344 378.096V376.096C36.2574 376.096 32.1952 374.857 29.1594 372.584C26.1295 370.315 24.0328 366.95 22.9892 362.53L21.0428 362.99ZM41.344 378.096C46.839 378.096 51.1418 376.954 54.0964 374.782C57.0925 372.579 58.6 369.389 58.6 365.576H56.6C56.6 368.803 55.3555 371.373 52.9116 373.17C50.4262 374.998 46.601 376.096 41.344 376.096V378.096ZM58.6 365.576C58.6 362.593 57.7178 360.203 56.1401 358.28C54.5802 356.378 52.392 354.996 49.8752 353.913C44.891 351.769 38.234 350.658 31.837 349.209C25.3437 347.737 19.0382 345.908 14.3531 342.385C9.74223 338.917 6.632 333.754 6.632 325.384H4.632C4.632 334.358 8.01777 340.123 13.151 343.983C18.2098 347.788 24.8963 349.687 31.395 351.159C37.99 352.654 44.325 353.703 49.0848 355.751C51.44 356.764 53.3118 357.986 54.5939 359.548C55.8582 361.089 56.6 363.023 56.6 365.576H58.6ZM6.632 325.384C6.632 318.762 9.35381 312.706 14.5515 308.29C19.7574 303.867 27.5111 301.04 37.632 301.04V299.04C27.1449 299.04 18.8986 301.973 13.2565 306.766C7.60619 311.566 4.632 318.182 4.632 325.384H6.632ZM37.632 301.04C46.2488 301.04 54.1212 303.116 60.163 307.52C66.1837 311.909 70.4694 318.667 71.8422 328.214L73.8218 327.93C72.3786 317.893 67.8323 310.635 61.341 305.904C54.8708 301.188 46.5512 299.04 37.632 299.04V301.04ZM72.832 327.072H54.528V329.072H72.832V327.072ZM55.5066 327.866C54.4481 322.838 52.3383 319.055 49.1837 316.538C46.0313 314.023 41.9498 312.864 37.12 312.864V314.864C41.6342 314.864 45.2327 315.945 47.9363 318.102C50.6377 320.257 52.5599 323.578 53.5495 328.278L55.5066 327.866ZM37.12 312.864C32.6307 312.864 28.9144 313.886 26.2922 315.791C23.6391 317.719 22.168 320.513 22.168 323.848H24.168C24.168 321.167 25.3209 318.969 27.4679 317.409C29.6456 315.826 32.9053 314.864 37.12 314.864V312.864ZM88.978 333.064H89.978V332.064H88.978V333.064ZM80.146 333.064H79.146V334.064H80.146V333.064ZM80.146 320.392V319.392H79.146V320.392H80.146ZM88.978 320.392V321.392H89.978V320.392H88.978ZM88.978 304.648V303.648H87.978V304.648H88.978ZM105.362 304.648H106.362V303.648H105.362V304.648ZM105.362 320.392H104.362V321.392H105.362V320.392ZM119.826 320.392H120.826V319.392H119.826V320.392ZM119.826 333.064V334.064H120.826V333.064H119.826ZM105.362 333.064V332.064H104.362V333.064H105.362ZM119.57 377.224H120.57V376.224H119.57V377.224ZM119.57 389.256L120.017 390.15L120.57 389.874V389.256H119.57ZM89.978 367.624V333.064H87.978V367.624H89.978ZM88.978 332.064H80.146V334.064H88.978V332.064ZM81.146 333.064V320.392H79.146V333.064H81.146ZM80.146 321.392H88.978V319.392H80.146V321.392ZM89.978 320.392V304.648H87.978V320.392H89.978ZM88.978 305.648H105.362V303.648H88.978V305.648ZM104.362 304.648V320.392H106.362V304.648H104.362ZM105.362 321.392H119.826V319.392H105.362V321.392ZM118.826 320.392V333.064H120.826V320.392H118.826ZM119.826 332.064H105.362V334.064H119.826V332.064ZM104.362 333.064V366.216H106.362V333.064H104.362ZM104.362 366.216C104.362 369.84 104.866 372.923 106.774 375.072C108.707 377.248 111.851 378.224 116.498 378.224V376.224C112.057 376.224 109.633 375.28 108.27 373.744C106.882 372.181 106.362 369.76 106.362 366.216H104.362ZM116.498 378.224H119.57V376.224H116.498V378.224ZM118.57 377.224V389.256H120.57V377.224H118.57ZM119.123 388.362C117.53 389.158 113.997 389.92 109.586 389.92V391.92C114.135 391.92 118.026 391.146 120.017 390.15L119.123 388.362ZM109.586 389.92C102.8 389.92 97.965 387.996 94.8033 384.374C91.6187 380.726 89.978 375.182 89.978 367.624H87.978C87.978 375.426 89.6653 381.53 93.2967 385.69C96.951 389.876 102.42 391.92 109.586 391.92V389.92ZM145.299 342.92V343.92H146.154L146.287 343.075L145.299 342.92ZM128.787 342.92L127.797 342.779L127.634 343.92H128.787V342.92ZM190.227 389V390H191.646L191.169 388.664L190.227 389ZM173.203 389L172.271 389.362L172.519 390H173.203V389ZM171.795 379.656L172.794 379.622L172.692 376.664L170.979 379.077L171.795 379.656ZM142.227 351.24L142.54 352.19L142.547 352.187L142.227 351.24ZM171.667 347.272L171.678 348.272L172.667 348.261V347.272H171.667ZM171.667 357.384H172.667V356.367L171.651 356.384L171.667 357.384ZM145.299 341.92H128.787V343.92H145.299V341.92ZM129.777 343.061C130.834 335.663 134.052 329.792 139.047 325.762C144.048 321.727 150.915 319.472 159.379 319.472V317.472C150.563 317.472 143.222 319.825 137.791 324.206C132.354 328.592 128.916 334.945 127.797 342.779L129.777 343.061ZM159.379 319.472C168.717 319.472 175.639 322.225 180.225 326.796C184.813 331.369 187.179 337.876 187.179 345.608H189.179C189.179 337.468 186.681 330.407 181.637 325.38C176.591 320.351 169.113 317.472 159.379 317.472V319.472ZM187.179 345.608V372.232H189.179V345.608H187.179ZM187.179 372.232C187.179 380.732 187.95 385.598 189.285 389.336L191.169 388.664C189.944 385.234 189.179 380.628 189.179 372.232H187.179ZM190.227 388H173.203V390H190.227V388ZM174.135 388.638C173.305 386.502 172.922 383.321 172.794 379.622L170.796 379.69C170.924 383.415 171.309 386.89 172.271 389.362L174.135 388.638ZM170.979 379.077C165.563 386.71 157.443 389.92 149.523 389.92V391.92C157.987 391.92 166.763 388.474 172.611 380.235L170.979 379.077ZM149.523 389.92C142.954 389.92 137.442 388.292 133.593 385.168C129.773 382.067 127.483 377.406 127.483 371.08H125.483C125.483 377.938 127.993 383.197 132.333 386.72C136.644 390.22 142.652 391.92 149.523 391.92V389.92ZM127.483 371.08C127.483 366.604 128.736 362.732 131.207 359.567C133.683 356.397 137.435 353.871 142.54 352.19L141.914 350.29C136.523 352.065 132.403 354.787 129.631 358.337C126.854 361.892 125.483 366.212 125.483 371.08H127.483ZM142.547 352.187C151.486 349.166 160.193 348.4 171.678 348.272L171.656 346.272C160.101 346.4 151.144 347.17 141.907 350.293L142.547 352.187ZM172.667 347.272V345.608H170.667V347.272H172.667ZM172.667 345.608C172.667 341.049 171.577 337.363 169.141 334.82C166.697 332.269 163.064 331.04 158.355 331.04V333.04C162.734 333.04 165.757 334.179 167.697 336.204C169.645 338.237 170.667 341.335 170.667 345.608H172.667ZM158.355 331.04C154.261 331.04 151.001 332.185 148.622 334.282C146.248 336.375 144.85 339.328 144.311 342.765L146.287 343.075C146.772 339.984 147.998 337.497 149.944 335.782C151.885 334.071 154.641 333.04 158.355 333.04V331.04ZM141.995 370.184C141.995 373.093 143.143 375.531 145.249 377.22C147.332 378.89 150.264 379.76 153.747 379.76V377.76C150.574 377.76 148.13 376.966 146.501 375.66C144.895 374.373 143.995 372.523 143.995 370.184H141.995ZM153.747 379.76C164.443 379.76 172.667 371.088 172.667 360.328H170.667C170.667 370.048 163.275 377.76 153.747 377.76V379.76ZM172.667 360.328V357.384H170.667V360.328H172.667ZM171.651 356.384C159.966 356.577 152.597 358.049 148.121 360.455C145.862 361.67 144.312 363.137 143.334 364.82C142.358 366.501 141.995 368.324 141.995 370.184H143.995C143.995 368.588 144.304 367.131 145.064 365.824C145.822 364.519 147.072 363.29 149.069 362.217C153.105 360.047 160.072 358.575 171.683 358.384L171.651 356.384ZM203.802 389H202.802V390H203.802V389ZM203.802 320.392V319.392H202.802V320.392H203.802ZM220.186 320.392H221.186V319.392H220.186V320.392ZM220.186 330.376H219.186L221.063 330.856L220.186 330.376ZM245.658 320.392H246.658V319.947L246.327 319.649L245.658 320.392ZM245.658 334.6L245.376 335.559L246.658 335.936V334.6H245.658ZM220.186 389V390H221.186V389H220.186ZM204.802 389V320.392H202.802V389H204.802ZM203.802 321.392H220.186V319.392H203.802V321.392ZM219.186 320.392V330.376H221.186V320.392H219.186ZM221.063 330.856C225.376 322.97 231.959 319.472 239.002 319.472V317.472C231.197 317.472 223.956 321.398 219.309 329.896L221.063 330.856ZM239.002 319.472C241.702 319.472 243.971 320.219 244.989 321.135L246.327 319.649C244.785 318.261 241.934 317.472 239.002 317.472V319.472ZM244.658 320.392V334.6H246.658V320.392H244.658ZM245.94 333.641C243.64 332.964 241.104 332.704 238.106 332.704V334.704C240.996 334.704 243.324 334.956 245.376 335.559L245.94 333.641ZM238.106 332.704C231.694 332.704 226.91 334.628 223.744 338.174C220.596 341.7 219.186 346.678 219.186 352.52H221.186C221.186 346.97 222.528 342.54 225.236 339.506C227.926 336.492 232.102 334.704 238.106 334.704V332.704ZM219.186 352.52V389H221.186V352.52H219.186ZM220.186 388H203.802V390H220.186V388ZM270.686 389V390H271.686V389H270.686ZM254.302 389H253.302V390H254.302V389ZM254.302 296.84V295.84H253.302V296.84H254.302ZM270.686 296.84H271.686V295.84H270.686V296.84ZM270.686 328.072H269.686V331.214L271.502 328.65L270.686 328.072ZM270.686 381.704L271.504 381.129L269.686 378.54V381.704H270.686ZM270.686 388H254.302V390H270.686V388ZM255.302 389V296.84H253.302V389H255.302ZM254.302 297.84H270.686V295.84H254.302V297.84ZM269.686 296.84V328.072H271.686V296.84H269.686ZM271.502 328.65C275.682 322.749 281.532 319.472 288.734 319.472V317.472C280.832 317.472 274.394 321.107 269.87 327.494L271.502 328.65ZM288.734 319.472C297.349 319.472 304.252 322.775 309.025 328.744C313.818 334.74 316.534 343.519 316.534 354.568H318.534C318.534 343.217 315.746 333.948 310.587 327.496C305.408 321.017 297.911 317.472 288.734 317.472V319.472ZM316.534 354.568C316.534 366.068 313.753 374.906 308.933 380.85C304.134 386.768 297.232 389.92 288.734 389.92V391.92C297.772 391.92 305.27 388.544 310.487 382.11C315.683 375.702 318.534 366.364 318.534 354.568H316.534ZM288.734 389.92C281.497 389.92 275.535 386.87 271.504 381.129L269.868 382.279C274.285 388.57 280.867 391.92 288.734 391.92V389.92ZM269.686 381.704V389H271.686V381.704H269.686ZM285.79 331.04C280.548 331.04 276.451 333.174 273.71 337.276C271.01 341.318 269.686 347.179 269.686 354.568H271.686C271.686 347.365 272.986 341.962 275.374 338.388C277.721 334.874 281.176 333.04 285.79 333.04V331.04ZM269.686 354.568C269.686 361.962 271.044 367.882 273.756 371.984C276.505 376.141 280.597 378.352 285.79 378.352V376.352C281.255 376.352 277.795 374.467 275.424 370.88C273.016 367.238 271.686 361.766 271.686 354.568H269.686ZM285.79 378.352C290.979 378.352 295.043 376.176 297.762 372.028C300.442 367.941 301.766 362.021 301.766 354.568H299.766C299.766 361.835 298.466 367.307 296.09 370.932C293.753 374.496 290.329 376.352 285.79 376.352V378.352ZM301.766 354.568C301.766 347.236 300.407 341.38 297.711 337.326C294.977 333.217 290.917 331.04 285.79 331.04V333.04C290.263 333.04 293.691 334.895 296.045 338.434C298.437 342.028 299.766 347.436 299.766 354.568H301.766ZM372.051 320.392V319.392H371.051V320.392H372.051ZM388.435 320.392H389.435V319.392H388.435V320.392ZM388.435 389V390H389.435V389H388.435ZM372.051 389H371.051V390H372.051V389ZM372.051 379.784H373.051V376.138L371.191 379.274L372.051 379.784ZM329.427 320.392V319.392H328.427V320.392H329.427ZM345.811 320.392H346.811V319.392H345.811V320.392ZM373.051 360.2V320.392H371.051V360.2H373.051ZM372.051 321.392H388.435V319.392H372.051V321.392ZM387.435 320.392V389H389.435V320.392H387.435ZM388.435 388H372.051V390H388.435V388ZM373.051 389V379.784H371.051V389H373.051ZM371.191 379.274C366.905 386.498 360.207 389.92 352.083 389.92V391.92C360.855 391.92 368.237 388.174 372.911 380.294L371.191 379.274ZM352.083 389.92C345.501 389.92 340.123 387.937 336.387 384.066C332.647 380.19 330.427 374.293 330.427 366.216H328.427C328.427 374.651 330.751 381.106 334.947 385.454C339.147 389.807 345.097 391.92 352.083 391.92V389.92ZM330.427 366.216V320.392H328.427V366.216H330.427ZM329.427 321.392H345.811V319.392H329.427V321.392ZM344.811 320.392V362.888H346.811V320.392H344.811ZM344.811 362.888C344.811 367.672 345.79 371.552 347.96 374.251C350.161 376.989 353.458 378.352 357.715 378.352V376.352C353.908 376.352 351.253 375.155 349.518 372.997C347.752 370.8 346.811 367.448 346.811 362.888H344.811ZM357.715 378.352C367.305 378.352 373.051 369.737 373.051 360.2H371.051C371.051 369.095 365.789 376.352 357.715 376.352V378.352ZM462.944 344.712V345.712H464.084L463.935 344.582L462.944 344.712ZM446.56 344.712L445.574 344.881L445.717 345.712H446.56V344.712ZM446.944 365.704V364.704H446.135L445.966 365.496L446.944 365.704ZM463.456 365.704L464.44 365.88L464.651 364.704H463.456V365.704ZM462.944 343.712H446.56V345.712H462.944V343.712ZM447.546 344.543C446.749 339.894 444.933 336.491 442.313 334.255C439.693 332.019 436.372 331.04 432.736 331.04V333.04C436.012 333.04 438.836 333.917 441.015 335.777C443.195 337.637 444.835 340.57 445.574 344.881L447.546 344.543ZM432.736 331.04C427.371 331.04 423.178 333.202 420.372 337.352C417.605 341.442 416.248 347.368 416.248 354.824H418.248C418.248 347.56 419.579 342.094 422.028 338.472C424.438 334.91 427.989 333.04 432.736 333.04V331.04ZM416.248 354.824C416.248 362.162 417.673 368.03 420.544 372.089C423.451 376.201 427.768 378.352 433.248 378.352V376.352C428.36 376.352 424.677 374.471 422.176 370.935C419.639 367.346 418.248 361.95 418.248 354.824H416.248ZM433.248 378.352C436.954 378.352 440.201 377.338 442.75 375.226C445.297 373.115 447.054 369.984 447.922 365.912L445.966 365.496C445.17 369.232 443.599 371.925 441.474 373.686C439.351 375.446 436.582 376.352 433.248 376.352V378.352ZM446.944 366.704H463.456V364.704H446.944V366.704ZM462.472 365.528C460.972 373.898 457.307 379.969 452.201 383.956C447.085 387.95 440.437 389.92 432.864 389.92V391.92C440.779 391.92 447.891 389.858 453.431 385.532C458.981 381.199 462.868 374.662 464.44 365.88L462.472 365.528ZM432.864 389.92C422.992 389.92 415.151 386.554 409.768 380.556C404.374 374.545 401.352 365.782 401.352 354.824H399.352C399.352 366.138 402.474 375.423 408.28 381.892C414.097 388.374 422.512 391.92 432.864 391.92V389.92ZM401.352 354.824C401.352 343.351 404.471 334.529 409.891 328.586C415.301 322.653 423.109 319.472 432.736 319.472V317.472C422.651 317.472 414.267 320.819 408.413 327.238C402.569 333.647 399.352 343.001 399.352 354.824H401.352ZM432.736 319.472C440.36 319.472 447.098 321.595 452.197 325.788C457.287 329.974 460.829 336.291 461.953 344.842L463.935 344.582C462.755 335.597 459.001 328.794 453.467 324.244C447.942 319.701 440.728 317.472 432.736 317.472V319.472ZM474.802 389H473.802V390H474.802V389ZM474.802 296.84V295.84H473.802V296.84H474.802ZM491.186 296.84H492.186V295.84H491.186V296.84ZM491.186 349.064H490.186V351.746L491.942 349.719L491.186 349.064ZM516.018 320.392V319.392H515.561L515.262 319.737L516.018 320.392ZM535.218 320.392L535.958 321.064L537.476 319.392H535.218V320.392ZM507.57 350.856L506.829 350.184L506.266 350.805L506.78 351.469L507.57 350.856ZM537.138 389V390H539.178L537.928 388.387L537.138 389ZM517.042 389L516.253 389.615L516.554 390H517.042V389ZM491.186 355.848L491.975 355.233L490.186 352.94V355.848H491.186ZM491.186 389V390H492.186V389H491.186ZM475.802 389V296.84H473.802V389H475.802ZM474.802 297.84H491.186V295.84H474.802V297.84ZM490.186 296.84V349.064H492.186V296.84H490.186ZM491.942 349.719L516.774 321.047L515.262 319.737L490.43 348.409L491.942 349.719ZM516.018 321.392H535.218V319.392H516.018V321.392ZM534.477 319.72L506.829 350.184L508.311 351.528L535.958 321.064L534.477 319.72ZM506.78 351.469L536.348 389.613L537.928 388.387L508.36 350.243L506.78 351.469ZM537.138 388H517.042V390H537.138V388ZM517.831 388.385L491.975 355.233L490.397 356.463L516.253 389.615L517.831 388.385ZM490.186 355.848V389H492.186V355.848H490.186ZM491.186 388H474.802V390H491.186V388ZM538.087 366.6V365.6H536.929L537.098 366.746L538.087 366.6ZM554.471 366.6L555.459 366.447L555.328 365.6H554.471V366.6ZM596.327 342.92V343.92H597.455L597.32 342.801L596.327 342.92ZM579.943 342.92L578.955 343.072L579.085 343.92H579.943V342.92ZM554.623 338.824C554.623 341.053 555.401 342.821 556.771 344.206C558.109 345.559 559.964 346.501 562.058 347.222C566.203 348.648 571.766 349.347 577.066 350.366C582.466 351.404 587.684 352.783 591.55 355.516C595.337 358.195 597.887 362.217 597.887 368.776H599.887C599.887 361.575 597.029 356.941 592.704 353.883C588.458 350.881 582.86 349.444 577.444 348.402C571.928 347.341 566.675 346.696 562.708 345.33C560.746 344.655 559.221 343.839 558.193 342.799C557.197 341.791 556.623 340.531 556.623 338.824H554.623ZM597.887 368.776C597.887 375.027 595.017 380.277 590.063 383.992C585.09 387.722 577.987 389.92 569.575 389.92V391.92C578.315 391.92 585.868 389.638 591.263 385.592C596.677 381.531 599.887 375.709 599.887 368.776H597.887ZM569.575 389.92C561.272 389.92 554.236 388.001 549 384.147C543.784 380.307 540.258 374.478 539.076 366.454L537.098 366.746C538.348 375.234 542.119 381.565 547.814 385.757C553.49 389.935 560.982 391.92 569.575 391.92V389.92ZM538.087 367.6H554.471V365.6H538.087V367.6ZM553.483 366.753C554.096 370.708 555.987 373.862 558.901 376.013C561.801 378.153 565.641 379.248 570.087 379.248V377.248C565.958 377.248 562.565 376.231 560.089 374.403C557.627 372.586 555.997 369.916 555.459 366.447L553.483 366.753ZM570.087 379.248C574.245 379.248 577.548 378.359 579.84 376.707C582.167 375.029 583.375 372.614 583.375 369.8H581.375C581.375 371.978 580.471 373.787 578.67 375.085C576.834 376.409 573.993 377.248 570.087 377.248V379.248ZM583.375 369.8C583.375 367.617 582.609 365.889 581.263 364.537C579.949 363.217 578.129 362.301 576.078 361.6C572.023 360.213 566.566 359.524 561.385 358.499C556.101 357.453 550.998 356.049 547.218 353.279C543.512 350.564 541.007 346.485 541.007 339.848H539.007C539.007 347.099 541.798 351.788 546.036 354.893C550.2 357.943 555.689 359.411 560.997 360.461C566.408 361.532 571.543 362.163 575.432 363.492C577.353 364.149 578.843 364.94 579.846 365.948C580.817 366.923 581.375 368.143 581.375 369.8H583.375ZM541.007 339.848C541.007 334.548 543.074 329.481 547.266 325.729C551.461 321.975 557.861 319.472 566.631 319.472V317.472C557.481 317.472 550.569 320.089 545.932 324.239C541.292 328.391 539.007 334.012 539.007 339.848H541.007ZM566.631 319.472C574.356 319.472 581.031 321.294 586.007 325.106C590.962 328.902 594.337 334.753 595.334 343.039L597.32 342.801C596.269 334.063 592.668 327.69 587.223 323.518C581.799 319.362 574.65 317.472 566.631 317.472V319.472ZM596.327 341.92H579.943V343.92H596.327V341.92ZM580.931 342.768C580.265 338.439 578.642 335.266 576.038 333.194C573.446 331.131 570.025 330.272 565.991 330.272V332.272C569.765 332.272 572.68 333.077 574.792 334.758C576.892 336.43 578.341 339.081 578.955 343.072L580.931 342.768ZM565.991 330.272C562.574 330.272 559.751 331.109 557.756 332.619C555.739 334.145 554.623 336.324 554.623 338.824H556.623C556.623 336.972 557.427 335.375 558.962 334.213C560.519 333.035 562.88 332.272 565.991 332.272V330.272Z" fill="white" mask="url(#path-4-outside-2_21_49)"/>
<mask id="path-6-outside-3_21_49" maskUnits="userSpaceOnUse" x="3" y="425" width="597" height="96" fill="black">
<rect fill="white" x="3" y="425" width="597" height="96"/>
<path d="M23.168 452.848C23.168 473.712 75.264 456.816 75.264 492.4C75.264 509.936 60.928 519.92 41.216 519.92C21.376 519.92 7.296 510.704 3.968 491.76H22.016C24.192 500.976 30.848 506.096 41.344 506.096C52.096 506.096 57.6 501.616 57.6 494.576C57.6 472.432 5.632 489.072 5.632 454.384C5.632 440.56 17.024 429.04 37.632 429.04C55.168 429.04 70.016 437.488 72.832 457.072H54.528C52.48 447.344 46.464 442.864 37.12 442.864C28.416 442.864 23.168 446.832 23.168 452.848ZM88.978 496.624V462.064H80.146V449.392H88.978V433.648H105.362V449.392H119.826V462.064H105.362V495.216C105.362 502.384 107.41 506.224 116.498 506.224H119.57V518.256C117.778 519.152 114.066 519.92 109.586 519.92C95.634 519.92 88.978 511.984 88.978 496.624ZM145.299 471.92H128.787C130.963 456.688 142.099 447.472 159.379 447.472C178.451 447.472 188.179 458.736 188.179 474.608V501.232C188.179 509.68 188.947 514.416 190.227 518H173.203C172.307 515.696 171.923 512.368 171.795 508.656C166.163 516.592 157.715 519.92 149.523 519.92C136.083 519.92 126.483 513.264 126.483 500.08C126.483 490.736 131.731 483.696 142.227 480.24C151.315 477.168 160.147 476.4 171.667 476.272V474.608C171.667 465.776 167.443 461.04 158.355 461.04C150.547 461.04 146.323 465.392 145.299 471.92ZM142.995 499.184C142.995 504.432 147.091 507.76 153.747 507.76C163.859 507.76 171.667 499.568 171.667 489.328V486.384C148.371 486.768 142.995 492.272 142.995 499.184ZM203.802 518V449.392H220.186V459.376C224.666 451.184 231.578 447.472 239.002 447.472C241.818 447.472 244.378 448.24 245.658 449.392V463.6C243.482 462.96 241.05 462.704 238.106 462.704C225.69 462.704 220.186 470.128 220.186 481.52V518H203.802ZM270.686 518H254.302V425.84H270.686V457.072C275.038 450.928 281.182 447.472 288.734 447.472C306.526 447.472 317.534 461.168 317.534 483.568C317.534 506.864 306.27 519.92 288.734 519.92C281.182 519.92 274.91 516.72 270.686 510.704V518ZM285.79 461.04C275.934 461.04 270.686 468.976 270.686 483.568C270.686 498.16 276.062 506.352 285.79 506.352C295.518 506.352 300.766 498.288 300.766 483.568C300.766 469.104 295.39 461.04 285.79 461.04ZM372.051 489.2V449.392H388.435V518H372.051V508.784C367.571 516.336 360.531 519.92 352.083 519.92C338.515 519.92 329.427 511.728 329.427 495.216V449.392H345.811V491.888C345.811 501.232 349.651 506.352 357.715 506.352C366.547 506.352 372.051 498.416 372.051 489.2ZM462.944 473.712H446.56C445.024 464.752 439.648 461.04 432.736 461.04C422.624 461.04 417.248 469.104 417.248 483.824C417.248 498.288 422.88 506.352 433.248 506.352C440.288 506.352 445.28 502.512 446.944 494.704H463.456C460.384 511.856 448.352 519.92 432.864 519.92C412.64 519.92 400.352 506.096 400.352 483.824C400.352 460.528 413.024 447.472 432.736 447.472C448.352 447.472 460.64 456.176 462.944 473.712ZM474.802 518V425.84H491.186V478.064L516.018 449.392H535.218L507.57 479.856L537.138 518H517.042L491.186 484.848V518H474.802ZM555.623 467.824C555.623 483.568 598.887 470.256 598.887 497.776C598.887 510.96 586.727 519.92 569.575 519.92C552.679 519.92 540.519 512.112 538.087 495.6H554.471C555.623 503.024 561.511 507.248 570.087 507.248C578.151 507.248 582.375 503.792 582.375 498.8C582.375 483.44 540.007 496.624 540.007 468.848C540.007 457.712 548.711 447.472 566.631 447.472C582.375 447.472 594.279 454.896 596.327 471.92H579.943C578.663 463.6 573.799 460.272 565.991 460.272C559.463 460.272 555.623 463.472 555.623 467.824Z"/>
</mask>
<path d="M3.968 491.76V491.26H3.37251L3.47554 491.847L3.968 491.76ZM22.016 491.76L22.5026 491.645L22.4117 491.26H22.016V491.76ZM72.832 457.072V457.572H73.409L73.3269 457.001L72.832 457.072ZM54.528 457.072L54.0387 457.175L54.1223 457.572H54.528V457.072ZM22.668 452.848C22.668 455.572 23.5228 457.71 25.0326 459.41C26.5307 461.097 28.6471 462.324 31.1262 463.292C36.0593 465.217 42.6532 466.189 49.1098 467.593C55.6165 469.007 62.0312 470.866 66.8197 474.539C71.5728 478.184 74.764 483.65 74.764 492.4H75.764C75.764 483.358 72.4432 477.592 67.4283 473.745C62.4488 469.926 55.8395 468.033 49.3222 466.615C42.7548 465.187 36.3247 464.247 31.4898 462.36C29.0849 461.422 27.1313 460.268 25.7804 458.746C24.4412 457.238 23.668 455.34 23.668 452.848H22.668ZM74.764 492.4C74.764 501.016 71.2494 507.749 65.3257 512.341C59.3881 516.943 50.9939 519.42 41.216 519.42V520.42C51.1501 520.42 59.7799 517.905 65.9383 513.131C72.1106 508.347 75.764 501.32 75.764 492.4H74.764ZM41.216 519.42C31.3697 519.42 23.0021 517.133 16.6943 512.54C10.395 507.953 6.10475 501.033 4.46046 491.673L3.47554 491.847C5.15925 501.431 9.573 508.591 16.1057 513.348C22.6299 518.099 31.2223 520.42 41.216 520.42V519.42ZM3.968 492.26H22.016V491.26H3.968V492.26ZM21.5294 491.875C22.6396 496.577 24.9033 500.271 28.2603 502.784C31.6144 505.296 36.0153 506.596 41.344 506.596V505.596C36.1767 505.596 32.0016 504.336 28.8597 501.984C25.7207 499.633 23.5684 496.159 22.5026 491.645L21.5294 491.875ZM41.344 506.596C46.7795 506.596 50.9629 505.465 53.8002 503.379C56.6582 501.277 58.1 498.242 58.1 494.576H57.1C57.1 497.95 55.7898 500.675 53.2078 502.573C50.6051 504.487 46.6605 505.596 41.344 505.596V506.596ZM58.1 494.576C58.1 491.7 57.2529 489.424 55.7536 487.597C54.2631 485.78 52.154 484.438 49.6776 483.373C44.7495 481.253 38.173 480.157 31.7265 478.696C25.2318 477.225 18.8311 475.378 14.0525 471.784C9.31112 468.219 6.132 462.905 6.132 454.384H5.132C5.132 463.207 8.44888 468.821 13.4515 472.584C18.4169 476.318 25.0082 478.199 31.5055 479.672C38.051 481.155 44.4665 482.219 49.2824 484.291C51.678 485.322 53.6289 486.584 54.9804 488.231C56.3231 489.868 57.1 491.916 57.1 494.576H58.1ZM6.132 454.384C6.132 447.617 8.9169 441.421 14.2277 436.909C19.5427 432.394 27.4196 429.54 37.632 429.54V428.54C27.2364 428.54 19.1133 431.446 13.5803 436.147C8.0431 440.851 5.132 447.327 5.132 454.384H6.132ZM37.632 429.54C46.3244 429.54 54.3086 431.634 60.4575 436.116C66.5958 440.59 70.9467 447.474 72.3371 457.143L73.3269 457.001C71.9013 447.086 67.4202 439.954 61.0465 435.308C54.6834 430.67 46.4756 428.54 37.632 428.54V429.54ZM72.832 456.572H54.528V457.572H72.832V456.572ZM55.0173 456.969C53.9761 452.023 51.9132 448.356 48.8718 445.929C45.8317 443.504 41.8709 442.364 37.12 442.364V443.364C41.7131 443.364 45.4323 444.464 48.2482 446.711C51.0628 448.956 53.0319 452.393 54.0387 457.175L55.0173 456.969ZM37.12 442.364C32.6993 442.364 29.0972 443.371 26.5861 445.196C24.0596 447.031 22.668 449.676 22.668 452.848H23.668C23.668 450.004 24.9004 447.657 27.1739 446.004C29.4628 444.341 32.8367 443.364 37.12 443.364V442.364ZM88.978 462.064H89.478V461.564H88.978V462.064ZM80.146 462.064H79.646V462.564H80.146V462.064ZM80.146 449.392V448.892H79.646V449.392H80.146ZM88.978 449.392V449.892H89.478V449.392H88.978ZM88.978 433.648V433.148H88.478V433.648H88.978ZM105.362 433.648H105.862V433.148H105.362V433.648ZM105.362 449.392H104.862V449.892H105.362V449.392ZM119.826 449.392H120.326V448.892H119.826V449.392ZM119.826 462.064V462.564H120.326V462.064H119.826ZM105.362 462.064V461.564H104.862V462.064H105.362ZM119.57 506.224H120.07V505.724H119.57V506.224ZM119.57 518.256L119.794 518.703L120.07 518.565V518.256H119.57ZM89.478 496.624V462.064H88.478V496.624H89.478ZM88.978 461.564H80.146V462.564H88.978V461.564ZM80.646 462.064V449.392H79.646V462.064H80.646ZM80.146 449.892H88.978V448.892H80.146V449.892ZM89.478 449.392V433.648H88.478V449.392H89.478ZM88.978 434.148H105.362V433.148H88.978V434.148ZM104.862 433.648V449.392H105.862V433.648H104.862ZM105.362 449.892H119.826V448.892H105.362V449.892ZM119.326 449.392V462.064H120.326V449.392H119.326ZM119.826 461.564H105.362V462.564H119.826V461.564ZM104.862 462.064V495.216H105.862V462.064H104.862ZM104.862 495.216C104.862 498.82 105.37 501.737 107.148 503.74C108.938 505.756 111.903 506.724 116.498 506.724V505.724C112.005 505.724 109.402 504.772 107.896 503.076C106.378 501.367 105.862 498.78 105.862 495.216H104.862ZM116.498 506.724H119.57V505.724H116.498V506.724ZM119.07 506.224V518.256H120.07V506.224H119.07ZM119.346 517.809C117.654 518.655 114.031 519.42 109.586 519.42V520.42C114.101 520.42 117.902 519.649 119.794 518.703L119.346 517.809ZM109.586 519.42C102.705 519.42 97.7115 517.466 94.4267 513.703C91.1304 509.927 89.478 504.243 89.478 496.624H88.478C88.478 504.365 90.1536 510.329 93.6733 514.361C97.2045 518.406 102.515 520.42 109.586 520.42V519.42ZM145.299 471.92V472.42H145.727L145.793 471.997L145.299 471.92ZM128.787 471.92L128.292 471.849L128.21 472.42H128.787V471.92ZM190.227 518V518.5H190.937L190.698 517.832L190.227 518ZM173.203 518L172.737 518.181L172.861 518.5H173.203V518ZM171.795 508.656L172.295 508.639L172.244 507.16L171.387 508.367L171.795 508.656ZM142.227 480.24L142.383 480.715L142.387 480.714L142.227 480.24ZM171.667 476.272L171.673 476.772L172.167 476.766V476.272H171.667ZM171.667 486.384H172.167V485.876L171.659 485.884L171.667 486.384ZM145.299 471.42H128.787V472.42H145.299V471.42ZM129.282 471.991C130.354 464.483 133.628 458.492 138.733 454.373C143.842 450.252 150.827 447.972 159.379 447.972V446.972C150.651 446.972 143.428 449.3 138.105 453.595C132.778 457.892 129.396 464.125 128.292 471.849L129.282 471.991ZM159.379 447.972C168.816 447.972 175.877 450.757 180.578 455.442C185.28 460.129 187.679 466.774 187.679 474.608H188.679C188.679 466.57 186.214 459.647 181.284 454.734C176.353 449.819 169.014 446.972 159.379 446.972V447.972ZM187.679 474.608V501.232H188.679V474.608H187.679ZM187.679 501.232C187.679 509.706 188.449 514.507 189.756 518.168L190.698 517.832C189.445 514.325 188.679 509.654 188.679 501.232H187.679ZM190.227 517.5H173.203V518.5H190.227V517.5ZM173.669 517.819C172.806 515.599 172.422 512.344 172.295 508.639L171.295 508.673C171.424 512.392 171.808 515.793 172.737 518.181L173.669 517.819ZM171.387 508.367C165.863 516.151 157.579 519.42 149.523 519.42V520.42C157.851 520.42 166.463 517.033 172.203 508.945L171.387 508.367ZM149.523 519.42C142.878 519.42 137.243 517.774 133.278 514.556C129.328 511.349 126.983 506.539 126.983 500.08H125.983C125.983 506.805 128.438 511.915 132.648 515.332C136.843 518.738 142.728 520.42 149.523 520.42V519.42ZM126.983 500.08C126.983 495.506 128.266 491.522 130.813 488.26C133.363 484.994 137.207 482.419 142.383 480.715L142.071 479.765C136.751 481.517 132.723 484.19 130.025 487.644C127.324 491.102 125.983 495.31 125.983 500.08H126.983ZM142.387 480.714C151.4 477.667 160.17 476.9 171.673 476.772L171.661 475.772C160.124 475.9 151.23 476.669 142.067 479.766L142.387 480.714ZM172.167 476.272V474.608H171.167V476.272H172.167ZM172.167 474.608C172.167 470.12 171.094 466.582 168.78 464.166C166.462 461.747 162.981 460.54 158.355 460.54V461.54C162.817 461.54 165.992 462.701 168.058 464.858C170.128 467.018 171.167 470.264 171.167 474.608H172.167ZM158.355 460.54C154.356 460.54 151.222 461.656 148.952 463.657C146.685 465.655 145.331 468.492 144.805 471.843L145.793 471.997C146.291 468.82 147.561 466.217 149.614 464.407C151.664 462.6 154.546 461.54 158.355 461.54V460.54ZM142.495 499.184C142.495 501.95 143.581 504.242 145.562 505.83C147.532 507.409 150.341 508.26 153.747 508.26V507.26C150.497 507.26 147.93 506.447 146.188 505.05C144.457 503.662 143.495 501.666 143.495 499.184H142.495ZM153.747 508.26C164.151 508.26 172.167 499.828 172.167 489.328H171.167C171.167 499.308 163.567 507.26 153.747 507.26V508.26ZM172.167 489.328V486.384H171.167V489.328H172.167ZM171.659 485.884C159.992 486.076 152.724 487.549 148.358 489.896C146.165 491.075 144.689 492.483 143.767 494.071C142.844 495.658 142.495 497.39 142.495 499.184H143.495C143.495 497.522 143.818 495.974 144.631 494.573C145.445 493.173 146.769 491.885 148.832 490.776C152.978 488.547 160.046 487.076 171.675 486.884L171.659 485.884ZM203.802 518H203.302V518.5H203.802V518ZM203.802 449.392V448.892H203.302V449.392H203.802ZM220.186 449.392H220.686V448.892H220.186V449.392ZM220.186 459.376H219.686L220.625 459.616L220.186 459.376ZM245.658 449.392H246.158V449.169L245.992 449.02L245.658 449.392ZM245.658 463.6L245.517 464.08L246.158 464.268V463.6H245.658ZM220.186 518V518.5H220.686V518H220.186ZM204.302 518V449.392H203.302V518H204.302ZM203.802 449.892H220.186V448.892H203.802V449.892ZM219.686 449.392V459.376H220.686V449.392H219.686ZM220.625 459.616C225.021 451.577 231.769 447.972 239.002 447.972V446.972C231.387 446.972 224.311 450.791 219.747 459.136L220.625 459.616ZM239.002 447.972C241.76 447.972 244.174 448.729 245.324 449.764L245.992 449.02C244.582 447.751 241.876 446.972 239.002 446.972V447.972ZM245.158 449.392V463.6H246.158V449.392H245.158ZM245.799 463.12C243.561 462.462 241.077 462.204 238.106 462.204V463.204C241.023 463.204 243.403 463.458 245.517 464.08L245.799 463.12ZM238.106 462.204C231.796 462.204 227.164 464.094 224.117 467.507C221.079 470.91 219.686 475.751 219.686 481.52H220.686C220.686 475.897 222.045 471.33 224.863 468.173C227.672 465.026 232 463.204 238.106 463.204V462.204ZM219.686 481.52V518H220.686V481.52H219.686ZM220.186 517.5H203.802V518.5H220.186V517.5ZM270.686 518V518.5H271.186V518H270.686ZM254.302 518H253.802V518.5H254.302V518ZM254.302 425.84V425.34H253.802V425.84H254.302ZM270.686 425.84H271.186V425.34H270.686V425.84ZM270.686 457.072H270.186V458.643L271.094 457.361L270.686 457.072ZM270.686 510.704L271.095 510.417L270.186 509.122V510.704H270.686ZM270.686 517.5H254.302V518.5H270.686V517.5ZM254.802 518V425.84H253.802V518H254.802ZM254.302 426.34H270.686V425.34H254.302V426.34ZM270.186 425.84V457.072H271.186V425.84H270.186ZM271.094 457.361C275.36 451.338 281.357 447.972 288.734 447.972V446.972C281.007 446.972 274.716 450.518 270.278 456.783L271.094 457.361ZM288.734 447.972C297.489 447.972 304.541 451.335 309.415 457.432C314.3 463.542 317.034 472.444 317.034 483.568H318.034C318.034 472.292 315.264 463.146 310.197 456.808C305.119 450.457 297.771 446.972 288.734 446.972V447.972ZM317.034 483.568C317.034 495.142 314.235 504.105 309.322 510.165C304.418 516.212 297.367 519.42 288.734 519.42V520.42C297.637 520.42 304.986 517.1 310.098 510.795C315.201 504.503 318.034 495.29 318.034 483.568H317.034ZM288.734 519.42C281.339 519.42 275.222 516.295 271.095 510.417L270.277 510.991C274.598 517.145 281.025 520.42 288.734 520.42V519.42ZM270.186 510.704V518H271.186V510.704H270.186ZM285.79 460.54C280.705 460.54 276.769 462.599 274.126 466.554C271.504 470.479 270.186 476.225 270.186 483.568H271.186C271.186 476.319 272.492 470.801 274.958 467.11C277.403 463.449 281.019 461.54 285.79 461.54V460.54ZM270.186 483.568C270.186 490.913 271.537 496.721 274.173 500.708C276.827 504.723 280.761 506.852 285.79 506.852V505.852C281.091 505.852 277.473 503.885 275.007 500.156C272.523 496.399 271.186 490.815 271.186 483.568H270.186ZM285.79 506.852C290.817 506.852 294.721 504.756 297.344 500.754C299.948 496.783 301.266 490.974 301.266 483.568H300.266C300.266 490.882 298.96 496.465 296.508 500.206C294.075 503.916 290.491 505.852 285.79 505.852V506.852ZM301.266 483.568C301.266 476.286 299.915 470.542 297.294 466.603C294.656 462.637 290.754 460.54 285.79 460.54V461.54C290.426 461.54 294.012 463.475 296.462 467.157C298.929 470.866 300.266 476.386 300.266 483.568H301.266ZM372.051 449.392V448.892H371.551V449.392H372.051ZM388.435 449.392H388.935V448.892H388.435V449.392ZM388.435 518V518.5H388.935V518H388.435ZM372.051 518H371.551V518.5H372.051V518ZM372.051 508.784H372.551V506.961L371.621 508.529L372.051 508.784ZM329.427 449.392V448.892H328.927V449.392H329.427ZM345.811 449.392H346.311V448.892H345.811V449.392ZM372.551 489.2V449.392H371.551V489.2H372.551ZM372.051 449.892H388.435V448.892H372.051V449.892ZM387.935 449.392V518H388.935V449.392H387.935ZM388.435 517.5H372.051V518.5H388.435V517.5ZM372.551 518V508.784H371.551V518H372.551ZM371.621 508.529C367.238 515.917 360.369 519.42 352.083 519.42V520.42C360.693 520.42 367.904 516.755 372.481 509.039L371.621 508.529ZM352.083 519.42C345.4 519.42 339.879 517.405 336.027 513.413C332.173 509.419 329.927 503.382 329.927 495.216H328.927C328.927 503.562 331.225 509.877 335.307 514.107C339.391 518.339 345.198 520.42 352.083 520.42V519.42ZM329.927 495.216V449.392H328.927V495.216H329.927ZM329.427 449.892H345.811V448.892H329.427V449.892ZM345.311 449.392V491.888H346.311V449.392H345.311ZM345.311 491.888C345.311 496.616 346.281 500.364 348.349 502.937C350.434 505.531 353.57 506.852 357.715 506.852V505.852C353.796 505.852 350.98 504.613 349.129 502.311C347.261 499.988 346.311 496.504 346.311 491.888H345.311ZM357.715 506.852C366.926 506.852 372.551 498.576 372.551 489.2H371.551C371.551 498.256 366.168 505.852 357.715 505.852V506.852ZM462.944 473.712V474.212H463.514L463.44 473.647L462.944 473.712ZM446.56 473.712L446.067 473.796L446.138 474.212H446.56V473.712ZM446.944 494.704V494.204H446.539L446.455 494.6L446.944 494.704ZM463.456 494.704L463.948 494.792L464.053 494.204H463.456V494.704ZM462.944 473.212H446.56V474.212H462.944V473.212ZM447.053 473.628C446.27 469.063 444.499 465.778 441.989 463.636C439.478 461.494 436.282 460.54 432.736 460.54V461.54C436.102 461.54 439.05 462.442 441.339 464.396C443.629 466.35 445.314 469.401 446.067 473.796L447.053 473.628ZM432.736 460.54C427.525 460.54 423.493 462.629 420.786 466.632C418.099 470.605 416.748 476.416 416.748 483.824H417.748C417.748 476.512 419.085 470.931 421.614 467.192C424.123 463.483 427.835 461.54 432.736 461.54V460.54ZM416.748 483.824C416.748 491.109 418.164 496.859 420.952 500.801C423.757 504.768 427.916 506.852 433.248 506.852V505.852C428.212 505.852 424.371 503.904 421.768 500.223C419.148 496.517 417.748 491.003 417.748 483.824H416.748ZM433.248 506.852C436.861 506.852 439.989 505.865 442.431 503.841C444.872 501.818 446.583 498.796 447.433 494.808L446.455 494.6C445.641 498.42 444.024 501.222 441.793 503.071C439.563 504.919 436.675 505.852 433.248 505.852V506.852ZM446.944 495.204H463.456V494.204H446.944V495.204ZM462.964 494.616C461.446 503.089 457.725 509.276 452.508 513.35C447.287 517.427 440.523 519.42 432.864 519.42V520.42C440.693 520.42 447.689 518.381 453.124 514.138C458.563 509.892 462.394 503.471 463.948 494.792L462.964 494.616ZM432.864 519.42C422.872 519.42 414.887 516.009 409.396 509.89C403.899 503.765 400.852 494.871 400.852 483.824H399.852C399.852 495.049 402.949 504.203 408.652 510.558C414.361 516.919 422.632 520.42 432.864 520.42V519.42ZM400.852 483.824C400.852 472.264 403.995 463.309 409.521 457.249C415.043 451.195 422.995 447.972 432.736 447.972V446.972C422.765 446.972 414.525 450.277 408.783 456.575C403.045 462.867 399.852 472.088 399.852 483.824H400.852ZM432.736 447.972C440.452 447.972 447.309 450.122 452.514 454.402C457.716 458.679 461.31 465.117 462.448 473.777L463.44 473.647C462.274 464.771 458.572 458.089 453.15 453.63C447.731 449.174 440.636 446.972 432.736 446.972V447.972ZM474.802 518H474.302V518.5H474.802V518ZM474.802 425.84V425.34H474.302V425.84H474.802ZM491.186 425.84H491.686V425.34H491.186V425.84ZM491.186 478.064H490.686V479.405L491.564 478.391L491.186 478.064ZM516.018 449.392V448.892H515.79L515.64 449.065L516.018 449.392ZM535.218 449.392L535.588 449.728L536.347 448.892H535.218V449.392ZM507.57 479.856L507.2 479.52L506.918 479.831L507.175 480.162L507.57 479.856ZM537.138 518V518.5H538.158L537.533 517.694L537.138 518ZM517.042 518L516.648 518.307L516.798 518.5H517.042V518ZM491.186 484.848L491.58 484.541L490.686 483.394V484.848H491.186ZM491.186 518V518.5H491.686V518H491.186ZM475.302 518V425.84H474.302V518H475.302ZM474.802 426.34H491.186V425.34H474.802V426.34ZM490.686 425.84V478.064H491.686V425.84H490.686ZM491.564 478.391L516.396 449.719L515.64 449.065L490.808 477.737L491.564 478.391ZM516.018 449.892H535.218V448.892H516.018V449.892ZM534.848 449.056L507.2 479.52L507.94 480.192L535.588 449.728L534.848 449.056ZM507.175 480.162L536.743 518.306L537.533 517.694L507.965 479.55L507.175 480.162ZM537.138 517.5H517.042V518.5H537.138V517.5ZM517.436 517.693L491.58 484.541L490.792 485.155L516.648 518.307L517.436 517.693ZM490.686 484.848V518H491.686V484.848H490.686ZM491.186 517.5H474.802V518.5H491.186V517.5ZM538.087 495.6V495.1H537.508L537.592 495.673L538.087 495.6ZM554.471 495.6L554.965 495.523L554.899 495.1H554.471V495.6ZM596.327 471.92V472.42H596.891L596.823 471.86L596.327 471.92ZM579.943 471.92L579.449 471.996L579.514 472.42H579.943V471.92ZM555.123 467.824C555.123 469.923 555.85 471.563 557.126 472.854C558.387 474.129 560.159 475.039 562.22 475.749C566.321 477.16 571.807 477.845 577.161 478.875C582.565 479.914 587.878 481.308 591.838 484.108C595.76 486.881 598.387 491.056 598.387 497.776H599.387C599.387 490.736 596.606 486.255 592.416 483.292C588.264 480.356 582.762 478.934 577.349 477.893C571.887 476.843 566.557 476.184 562.546 474.803C560.55 474.117 558.943 473.269 557.838 472.151C556.748 471.049 556.123 469.661 556.123 467.824H555.123ZM598.387 497.776C598.387 504.197 595.432 509.59 590.363 513.392C585.284 517.201 578.069 519.42 569.575 519.42V520.42C578.233 520.42 585.674 518.159 590.963 514.192C596.262 510.218 599.387 504.539 599.387 497.776H598.387ZM569.575 519.42C561.199 519.42 554.05 517.484 548.703 513.549C543.367 509.622 539.781 503.667 538.582 495.527L537.592 495.673C538.825 504.045 542.535 510.25 548.111 514.355C553.676 518.452 561.055 520.42 569.575 520.42V519.42ZM538.087 496.1H554.471V495.1H538.087V496.1ZM553.977 495.677C554.572 499.51 556.397 502.543 559.198 504.61C561.992 506.672 565.72 507.748 570.087 507.748V506.748C565.878 506.748 562.374 505.712 559.792 503.806C557.217 501.905 555.522 499.114 554.965 495.523L553.977 495.677ZM570.087 507.748C574.182 507.748 577.37 506.872 579.547 505.302C581.743 503.719 582.875 501.455 582.875 498.8H581.875C581.875 501.137 580.895 503.097 578.963 504.49C577.013 505.896 574.056 506.748 570.087 506.748V507.748ZM582.875 498.8C582.875 496.749 582.161 495.148 580.909 493.889C579.673 492.648 577.935 491.763 575.917 491.073C571.903 489.701 566.527 489.026 561.288 487.99C555.998 486.943 550.799 485.522 546.922 482.683C543.083 479.87 540.507 475.638 540.507 468.848H539.507C539.507 475.946 542.227 480.482 546.331 483.489C550.399 486.47 555.792 487.921 561.094 488.97C566.447 490.03 571.663 490.675 575.593 492.019C577.547 492.687 579.119 493.509 580.2 494.595C581.265 495.664 581.875 497.011 581.875 498.8H582.875ZM540.507 468.848C540.507 463.414 542.628 458.208 546.932 454.357C551.238 450.504 557.766 447.972 566.631 447.972V446.972C557.576 446.972 550.792 449.56 546.266 453.611C541.738 457.664 539.507 463.146 539.507 468.848H540.507ZM566.631 447.972C574.429 447.972 581.223 449.811 586.311 453.709C591.388 457.599 594.82 463.581 595.831 471.98L596.823 471.86C595.786 463.235 592.242 456.993 586.919 452.915C581.607 448.845 574.577 446.972 566.631 446.972V447.972ZM596.327 471.42H579.943V472.42H596.327V471.42ZM580.437 471.844C579.784 467.6 578.204 464.557 575.726 462.585C573.255 460.617 569.96 459.772 565.991 459.772V460.772C569.83 460.772 572.871 461.591 575.104 463.367C577.33 465.139 578.822 467.92 579.449 471.996L580.437 471.844ZM565.991 459.772C562.651 459.772 559.943 460.59 558.057 462.017C556.161 463.452 555.123 465.486 555.123 467.824H556.123C556.123 465.81 557.005 464.068 558.661 462.815C560.327 461.554 562.803 460.772 565.991 460.772V459.772Z" fill="white" mask="url(#path-6-outside-3_21_49)"/>
</g>
</svg>
